<?xml version="1.0" standalone="no"?>
<!DOCTYPE svg PUBLIC "-//W3C//DTD SVG 20010904//EN"
 "http://www.w3.org/TR/2001/REC-SVG-20010904/DTD/svg10.dtd">
<svg version="1.0" xmlns="http://www.w3.org/2000/svg"
 width="1024.000000pt" height="640.000000pt" viewBox="0 0 1024.000000 640.000000"
 preserveAspectRatio="xMidYMid meet">
<metadata>
Created by potrace 1.16, written by Peter Selinger 2001-2019
</metadata>
<g transform="translate(0.000000,640.000000) scale(0.100000,-0.100000)"
fill="#000000" stroke="none">
<path d="M0 3200 l0 -3200 1120 0 1120 0 0 320 0 320 30 0 c20 0 65 22 129 62
132 83 131 66 42 409 -38 145 -75 278 -81 295 -18 43 -6 81 30 97 21 9 74 76
196 252 92 132 171 254 176 270 4 17 17 41 27 54 17 23 21 23 64 13 28 -7 133
-12 266 -12 122 0 221 -2 221 -5 0 -2 -34 -52 -76 -111 -84 -118 -90 -129 -75
-139 14 -8 14 -80 1 -105 -13 -24 -65 -41 -93 -31 -21 8 -30 -2 -102 -105 -44
-62 -83 -114 -86 -114 -3 0 -25 102 -48 227 -24 126 -47 231 -50 236 -8 9 -9
8 -193 -258 -134 -193 -159 -239 -159 -295 0 -34 140 -555 150 -558 6 -2 11
-16 11 -31 0 -24 12 -34 109 -89 l109 -62 82 0 83 0 -7 210 -7 210 41 0 42 0
-8 133 c-13 205 -12 212 11 212 19 0 21 -10 31 -170 6 -93 12 -171 13 -172 0
-2 10 -3 21 -3 19 0 20 7 20 145 l0 145 25 0 25 0 0 -145 c0 -127 2 -145 16
-145 14 0 16 20 13 185 -3 144 -1 185 8 185 9 0 13 -21 13 -72 0 -120 13 -299
20 -291 4 4 15 69 24 143 21 165 23 170 47 170 23 0 23 7 1 -155 -13 -99 -16
-184 -14 -358 l3 -227 136 0 135 0 -32 36 c-38 44 -50 73 -50 125 0 49 20 99
60 147 16 20 30 39 30 43 0 4 -17 9 -38 13 -22 3 -48 16 -62 31 -20 22 -24 36
-24 98 l-1 72 152 5 152 5 30 40 c17 22 31 43 31 46 0 3 -36 32 -80 64 -44 32
-80 62 -80 67 0 4 45 8 101 8 89 0 100 -2 95 -16 -4 -10 10 -41 38 -83 24 -36
82 -127 129 -201 68 -109 81 -136 67 -138 -9 -2 -32 -19 -50 -38 l-34 -34 111
0 c110 0 111 0 117 25 10 38 1 45 -62 45 l-57 1 78 73 c42 40 77 79 77 87 0
35 82 181 125 224 88 89 54 85 696 85 l565 0 50 -25 c87 -43 160 -141 203
-272 19 -58 31 -75 77 -115 30 -27 58 -48 63 -48 7 0 139 202 251 385 14 23
13 26 -15 55 l-29 30 117 0 117 0 0 575 0 575 -382 -2 -383 -3 4 -315 3 -315
-24 22 c-16 15 -42 24 -85 29 l-63 7 -2 246 c-3 244 -3 246 -21 213 -12 -21
-24 -32 -35 -30 -14 3 -17 18 -20 93 -3 105 0 123 28 153 18 19 25 21 36 11
13 -11 15 -3 12 56 -3 59 -6 70 -23 75 -18 4 -20 14 -20 95 -1 50 -4 107 -7
128 l-7 37 537 -2 537 -3 0 -82 c0 -46 -2 -454 -3 -908 l-2 -825 -115 0 c-63
0 -115 -3 -115 -7 0 -3 15 -25 33 -49 l32 -43 128 -1 127 0 0 -72 c0 -70 -1
-72 -40 -109 l-41 -39 42 -56 c35 -45 43 -65 47 -109 6 -72 -2 -98 -44 -145
l-36 -40 191 0 191 0 0 110 0 110 560 0 560 0 0 -110 0 -109 63 -3 62 -3 3
-318 2 -317 990 0 990 0 0 3200 0 3200 -5120 0 -5120 0 0 -3200z m3115 1931
c106 -38 198 -129 236 -234 11 -31 17 -37 34 -33 148 42 493 108 636 122 65 6
65 6 61 35 -6 37 8 37 65 -2 l45 -31 -43 -44 c-44 -45 -59 -44 -59 2 0 24 13
24 -205 -7 -120 -17 -380 -70 -480 -97 -30 -8 -30 -9 -36 -93 -24 -344 -431
-489 -665 -236 l-55 59 -121 -62 c-179 -90 -265 -141 -445 -262 l-161 -109 26
-57 c24 -50 27 -70 27 -157 0 -93 -2 -105 -32 -166 -39 -80 -111 -150 -191
-187 -50 -24 -69 -27 -157 -27 -93 0 -105 2 -166 33 -37 17 -69 32 -71 32 -6
0 -166 -203 -221 -280 -67 -96 -180 -289 -237 -407 l-50 -102 43 -44 c24 -24
57 -70 72 -103 25 -51 29 -71 30 -149 0 -77 -4 -98 -27 -147 -51 -110 -144
-183 -266 -209 -40 -8 -53 -15 -57 -32 -16 -74 -26 -198 -32 -379 l-6 -207 36
-3 36 -3 -32 -52 c-18 -29 -36 -53 -42 -53 -5 0 -27 21 -48 48 l-39 47 29 5
28 5 6 215 c6 187 15 293 34 377 4 19 -1 23 -45 32 -108 23 -210 102 -257 200
-24 49 -28 68 -28 151 0 88 3 101 33 162 60 122 160 188 300 196 68 4 93 1
143 -18 33 -12 62 -20 63 -18 2 1 34 64 73 138 111 215 245 418 401 604 l41
50 -36 39 c-19 22 -47 65 -62 96 -23 49 -26 69 -26 156 0 88 3 107 27 157 37
80 107 152 187 191 61 30 73 32 166 32 89 0 107 -3 160 -28 33 -15 81 -48 106
-73 l46 -45 111 78 c153 106 354 226 500 298 91 45 120 64 116 75 -27 72 -37
145 -27 208 23 150 110 257 251 313 65 25 185 25 257 0z m2348 -69 c77 -38
148 -111 185 -190 24 -50 27 -69 27 -162 0 -96 -3 -110 -29 -162 -39 -77 -108
-144 -186 -182 -59 -28 -74 -31 -165 -31 -88 0 -107 3 -157 27 -80 37 -152
107 -191 187 -30 61 -32 73 -32 166 0 92 3 105 32 166 51 103 146 181 258 210
17 5 67 7 112 5 68 -2 92 -8 146 -34z m-854 -46 c65 -34 83 -128 36 -185 -29
-33 -84 -56 -115 -46 -16 5 -25 -3 -47 -39 -46 -76 -83 -53 -39 24 25 43 25
44 5 68 -23 30 -25 91 -4 132 28 55 105 76 164 46z m1653 -34 l-4 -28 135 -17
c220 -29 505 -91 748 -164 9 -3 19 5 26 19 32 70 109 129 190 147 179 38 335
-90 332 -274 0 -27 -4 -59 -8 -70 -7 -18 9 -29 148 -100 244 -126 424 -239
619 -387 l103 -78 41 35 c154 131 385 121 525 -22 139 -144 147 -361 17 -520
l-35 -42 59 -78 c100 -130 216 -315 288 -458 65 -128 71 -136 94 -130 113 25
153 29 216 18 181 -31 316 -166 347 -347 22 -130 -23 -268 -119 -362 -57 -56
-137 -101 -197 -111 l-39 -6 9 -111 c4 -61 8 -173 8 -248 l0 -138 28 -6 c15
-3 27 -8 27 -11 0 -10 -71 -93 -80 -93 -8 0 -70 91 -70 103 0 4 14 7 30 7 30
0 30 0 32 63 2 90 -3 282 -11 356 l-6 65 -78 13 c-103 17 -177 53 -242 118
-180 180 -158 481 45 630 l49 36 -23 53 c-63 143 -271 480 -359 580 l-34 40
-34 -21 c-97 -60 -247 -68 -352 -20 -79 36 -150 106 -190 186 -30 61 -32 73
-32 166 0 94 2 105 34 169 18 38 29 71 25 75 -5 3 -65 48 -134 99 -164 123
-346 236 -554 343 l-169 87 -31 -41 c-97 -128 -292 -144 -406 -35 -61 59 -83
110 -86 198 l-3 75 -93 27 c-189 56 -607 139 -753 150 -37 3 -40 1 -43 -24 -2
-16 -7 -28 -11 -28 -13 0 -85 79 -78 86 14 14 82 53 93 54 6 0 9 -12 6 -28z
m-182 -257 c0 -12 14 -15 64 -15 85 0 96 -16 82 -115 l-11 -70 -122 -3 -123
-3 0 111 0 110 55 0 c42 0 55 -3 55 -15z m-2332 -281 c21 -14 22 -22 22 -155
l0 -139 -125 0 -125 0 0 155 0 155 103 0 c77 0 108 -4 125 -16z m776 -24 c115
-19 216 -94 273 -203 25 -47 27 -63 28 -157 0 -95 -3 -110 -28 -160 -48 -96
-116 -156 -214 -189 -79 -26 -153 -27 -237 -1 -83 26 -172 104 -213 188 -25
51 -28 67 -28 162 0 101 1 108 34 168 55 102 152 174 258 192 67 11 62 11 127
0z m1540 -160 c234 -113 234 -446 0 -561 -70 -34 -199 -34 -264 0 -61 32 -117
86 -148 146 -22 43 -26 63 -26 135 0 72 4 93 26 136 34 66 117 140 177 159 68
22 174 15 235 -15z m-849 -155 c22 -8 60 -15 84 -15 36 0 49 -6 78 -35 30 -30
35 -40 29 -68 -3 -17 -17 -42 -31 -54 -14 -12 -25 -32 -25 -44 0 -21 -1 -21
-18 -6 -10 10 -28 17 -41 17 -12 0 -36 6 -54 13 -38 16 -106 10 -114 -9 -8
-22 -23 -16 -23 9 0 13 -11 34 -25 47 -48 45 -21 129 48 149 43 12 46 12 92
-4z m-2452 -138 c64 -29 126 -88 151 -145 17 -38 20 -40 50 -31 44 13 180 37
254 44 43 5 62 11 62 21 0 19 10 17 40 -6 l25 -19 -25 -26 c-23 -24 -25 -25
-37 -9 -12 16 -21 17 -105 7 -51 -6 -125 -19 -165 -28 l-71 -16 0 -68 c1 -171
-135 -311 -303 -311 -82 0 -145 21 -198 66 l-41 35 -92 -89 -92 -89 60 -56
c102 -94 147 -217 126 -342 -38 -228 -256 -370 -478 -310 -36 10 -67 15 -70
12 -10 -9 -42 -218 -46 -294 -3 -55 0 -73 9 -73 17 0 16 -5 -2 -40 -19 -37
-26 -37 -48 -1 -21 36 -21 41 -2 41 11 0 15 13 15 53 0 60 25 240 41 300 9 32
8 42 -2 46 -32 10 -102 90 -132 150 -30 62 -32 72 -32 176 0 104 2 113 32 171
36 70 110 141 180 174 63 30 198 39 270 18 l50 -15 96 93 97 93 -25 54 c-48
105 -42 216 18 304 90 132 246 176 390 110z m5172 -63 c72 -25 166 -120 194
-197 37 -103 21 -244 -38 -319 l-19 -23 70 -80 c39 -44 95 -115 125 -157 l55
-78 67 0 c156 0 274 -125 258 -275 -7 -68 -29 -110 -83 -161 l-44 -42 14 -70
c9 -38 20 -121 26 -183 7 -63 16 -115 21 -117 15 -6 10 -28 -10 -53 l-19 -23
-21 34 c-19 31 -19 35 -5 38 15 4 16 16 10 95 -4 51 -15 130 -24 177 -15 75
-19 85 -37 82 -151 -21 -265 30 -316 143 -25 55 -25 156 1 213 20 45 79 107
111 117 10 4 19 10 19 15 0 21 -165 235 -217 282 -18 17 -21 16 -68 -18 -253
-179 -596 51 -532 357 l7 36 -79 21 c-84 23 -254 52 -308 52 -23 0 -33 -5 -33
-15 0 -19 -9 -19 -32 2 -24 22 -23 35 7 63 24 23 25 23 25 3 0 -18 10 -21 106
-32 92 -10 255 -46 305 -66 12 -4 25 8 49 44 89 139 250 191 415 135z m-655
-439 c39 -37 41 -85 5 -121 -14 -14 -25 -34 -25 -44 0 -24 -13 -26 -31 -4 -10
12 -24 14 -56 10 -24 -3 -64 -9 -89 -12 -25 -3 -48 -12 -51 -20 -7 -19 -23
-18 -23 2 0 9 -11 27 -25 40 -72 67 -16 164 95 164 25 0 52 5 60 11 8 5 37 8
63 6 36 -3 56 -11 77 -32z m1774 -249 c68 -28 91 -99 56 -171 l-22 -45 21 -34
c12 -18 21 -41 21 -50 0 -30 -35 -16 -57 23 -20 35 -26 39 -73 43 -40 4 -59
12 -82 35 -60 60 -42 165 35 198 41 18 60 18 101 1z m-4388 -117 c-3 -17 -6
-76 -6 -130 l0 -99 -497 -2 -498 -3 -5 -703 -5 -702 -37 26 -36 26 -4 802 c-2
440 -2 804 0 809 2 4 249 7 549 7 l546 0 -7 -31z m-3325 -52 c102 -68 56 -220
-68 -222 -42 -1 -47 -4 -65 -39 -21 -40 -43 -55 -60 -38 -7 7 -2 24 16 55 l27
45 -21 34 c-36 60 -18 131 43 168 42 26 86 25 128 -3z m1894 -77 c13 -20 -15
-39 -49 -33 -29 4 -152 -20 -165 -32 -2 -3 5 -15 17 -28 61 -64 79 -183 41
-267 -69 -152 -245 -205 -380 -114 -28 19 -52 34 -54 34 -8 0 -38 -147 -40
-198 -2 -31 -3 -60 -4 -64 -2 -13 -19 -9 -24 6 -8 21 12 150 33 220 19 60 19
61 0 101 -50 103 -30 215 51 297 79 79 186 97 293 50 31 -14 48 -17 66 -10 24
9 173 45 197 47 6 0 15 -4 18 -9z m4470 -17 c55 -29 110 -88 135 -146 47 -107
18 -253 -65 -325 l-34 -30 18 -101 c14 -79 15 -105 6 -118 -18 -24 -29 1 -26
56 2 46 -16 141 -27 141 -4 0 -25 -7 -47 -15 -130 -47 -285 19 -352 149 -37
70 -38 179 -4 249 13 26 21 50 19 52 -13 13 -138 36 -171 32 -44 -6 -61 14
-33 41 9 9 16 11 16 6 0 -6 33 -17 73 -23 39 -7 86 -18 102 -25 28 -12 33 -11
66 16 71 55 116 69 204 65 56 -2 92 -10 120 -24z m-3015 -235 c16 -27 20 -51
20 -130 0 -100 -8 -120 -37 -96 -24 19 -63 108 -63 143 0 36 35 115 50 115 6
0 19 -15 30 -32z m-452 -175 c-3 -16 -23 -18 -216 -21 -207 -2 -212 -2 -212
18 0 19 6 20 216 20 200 0 215 -1 212 -17z m3984 -130 c16 -14 18 -33 18 -155
l0 -138 -120 0 -120 0 0 155 0 155 102 0 c80 0 105 -3 120 -17z m-6159 -15
c12 -6 45 -12 73 -13 59 -3 97 -24 114 -65 15 -35 -1 -84 -31 -101 -11 -6 -19
-21 -19 -36 0 -25 -1 -25 -18 -10 -10 10 -28 17 -41 17 -12 0 -37 6 -55 14
-38 16 -92 14 -109 -3 -16 -16 -27 -14 -27 5 0 9 -11 29 -25 46 -43 51 -26
115 39 144 39 17 71 17 99 2z m2375 -65 c-3 -17 -27 -18 -316 -21 -307 -2
-312 -2 -312 18 0 20 6 20 316 20 295 0 315 -1 312 -17z m4512 -94 c0 -8 5 -8
15 1 9 7 22 9 32 4 21 -8 29 -11 43 -13 6 0 10 -8 10 -16 0 -9 6 -12 15 -9 9
4 18 -1 22 -12 4 -11 13 -25 21 -33 7 -7 11 -20 8 -27 -3 -8 -1 -14 4 -14 6 0
10 -7 10 -15 0 -8 6 -15 14 -15 20 0 68 -51 62 -66 -3 -8 -1 -16 3 -19 5 -3 4
-23 -1 -45 -23 -89 -128 -117 -196 -52 -8 6 -24 9 -37 6 -12 -3 -26 -1 -30 5
-3 6 -11 9 -16 5 -15 -9 -79 25 -79 42 0 8 -4 13 -9 9 -12 -7 -33 29 -24 39 3
3 1 6 -6 6 -9 0 -12 9 -9 25 3 14 1 25 -3 25 -5 0 -9 9 -9 20 0 11 4 20 9 20
5 0 7 9 4 20 -3 12 1 22 11 26 9 3 16 15 16 25 0 13 7 19 21 19 11 0 18 4 14
9 -3 6 4 15 15 21 11 6 20 7 20 3 0 -4 5 -2 12 5 15 15 38 16 38 1z m-3610
-83 l0 -74 -87 -16 c-111 -20 -183 -20 -277 0 -73 16 -74 17 -80 53 -3 20 -6
46 -6 59 l0 23 44 -26 c34 -20 63 -27 128 -32 114 -8 190 9 237 53 20 18 37
34 39 34 1 0 2 -33 2 -74z m-460 -16 c0 -20 -7 -20 -314 -20 -199 0 -317 4
-321 10 -17 27 17 30 321 30 307 0 314 0 314 -20z m-500 -90 c0 -19 -7 -20
-199 -20 -123 0 -202 4 -206 10 -16 26 14 30 206 30 192 0 199 -1 199 -20z
m-3265 -30 c3 -5 13 -6 21 -3 10 4 17 -2 21 -15 3 -12 10 -18 19 -15 8 3 17
-3 21 -13 4 -11 13 -24 22 -30 8 -6 12 -18 9 -26 -4 -9 4 -22 20 -34 42 -30
71 -64 74 -87 10 -59 -37 -135 -85 -138 -66 -5 -92 3 -118 35 -14 17 -19 18
-32 7 -9 -7 -22 -9 -29 -5 -7 5 -21 7 -31 6 -9 -2 -20 3 -23 12 -3 8 -12 12
-20 9 -10 -4 -17 2 -21 16 -3 11 -12 21 -19 21 -12 0 -15 5 -14 25 1 3 -6 13
-15 21 -18 18 -20 34 -4 34 8 0 8 5 -1 15 -7 9 -9 22 -5 32 5 10 9 24 9 31 1
7 6 16 12 20 7 4 14 16 16 27 2 11 11 19 21 19 9 -1 15 2 12 6 -7 11 22 33 35
25 5 -3 10 -2 10 4 0 12 88 13 95 1z m3123 -77 c-3 -16 -23 -18 -216 -21 -207
-2 -212 -2 -212 18 0 19 6 20 216 20 200 0 215 -1 212 -17z m3820 -830 l-3
-58 -497 -3 -498 -2 0 60 0 60 500 0 501 0 -3 -57z m72 -93 c0 -7 -190 -10
-550 -10 -360 0 -550 3 -550 10 0 7 190 10 550 10 360 0 550 -3 550 -10z
m-115 -100 l0 -45 -457 -3 -458 -2 0 50 0 50 458 -2 457 -3 0 -45z"/>
<path d="M4510 4945 c-7 -8 -19 -15 -27 -15 -22 0 -9 -60 18 -82 43 -36 112
-13 124 41 10 48 -9 71 -59 71 -27 0 -48 -6 -56 -15z"/>
<path d="M3540 4305 l0 -135 105 0 105 0 0 120 c0 113 -1 120 -20 120 -11 0
-20 7 -20 15 0 12 -16 15 -85 15 l-85 0 0 -135z"/>
<path d="M5216 4045 c-32 -30 -33 -56 -3 -90 31 -37 103 -43 139 -12 42 35 44
62 9 97 -39 40 -105 42 -145 5z"/>
<path d="M7013 3441 c-37 -23 -49 -52 -32 -83 18 -35 40 -47 81 -48 51 0 84
17 98 50 15 35 1 64 -40 85 -39 20 -69 19 -107 -4z"/>
<path d="M8936 3143 c-12 -30 -5 -74 14 -93 45 -45 130 -9 130 55 0 15 -3 25
-7 22 -3 -4 -15 1 -26 10 -24 23 -103 27 -111 6z"/>
<path d="M1228 2983 c-20 -12 -28 -26 -28 -45 0 -63 84 -92 128 -45 24 26 30
81 10 93 -25 16 -83 14 -110 -3z"/>
<path d="M8020 2275 l0 -135 100 0 100 0 0 124 c0 112 -2 124 -17 122 -10 0
-17 5 -15 12 1 9 -20 12 -83 12 l-85 0 0 -135z"/>
<path d="M2065 2335 c-29 -28 -31 -51 -10 -82 31 -44 132 -48 166 -7 21 26 15
74 -12 95 -37 29 -113 26 -144 -6z"/>
<path d="M8903 2194 c-103 -51 -86 -203 26 -234 35 -10 67 2 55 21 -9 14 14
73 35 91 10 9 28 19 40 23 42 13 14 77 -45 101 -43 18 -71 17 -111 -2z"/>
<path d="M1002 1970 c-42 -26 -66 -81 -57 -128 9 -51 63 -102 108 -102 32 0
35 2 41 39 6 40 51 105 66 96 4 -3 13 2 20 10 30 36 -42 105 -110 105 -19 0
-50 -9 -68 -20z"/>
<path d="M2612 1754 c-168 -241 -186 -270 -161 -262 8 2 53 60 101 129 188
266 242 349 232 358 -5 6 -71 -80 -172 -225z"/>
<path d="M2413 1372 c-9 -6 4 -73 52 -262 36 -140 68 -263 71 -272 6 -20 34
-24 34 -5 0 19 -132 531 -139 539 -3 4 -12 4 -18 0z"/>
<path d="M4895 520 c-31 -12 -64 -53 -75 -91 -13 -44 -13 -174 0 -220 5 -19
24 -48 41 -65 27 -26 38 -29 107 -32 l77 -4 -3 -54 -4 -54 71 0 71 0 0 55 0
55 73 0 c133 0 167 43 167 210 0 118 -14 160 -62 190 -30 18 -49 20 -238 19
-113 0 -214 -4 -225 -9z"/>
<path d="M2420 205 l0 -205 831 0 c733 0 830 2 825 15 -4 12 57 303 80 378 5
16 -41 17 -865 17 l-871 0 0 -205z"/>
<path d="M6090 402 c0 -5 16 -87 35 -182 19 -95 35 -184 35 -197 l0 -23 960 0
960 0 0 205 0 205 -995 0 c-547 0 -995 -4 -995 -8z"/>
</g>
</svg>
