<?xml version="1.0" standalone="no"?>
<!DOCTYPE svg PUBLIC "-//W3C//DTD SVG 20010904//EN"
 "http://www.w3.org/TR/2001/REC-SVG-20010904/DTD/svg10.dtd">
<svg version="1.0" xmlns="http://www.w3.org/2000/svg"
 width="2000.000000pt" height="1250.000000pt" viewBox="0 0 2000.000000 1250.000000"
 preserveAspectRatio="xMidYMid meet">
<metadata>
Created by potrace 1.16, written by Peter Selinger 2001-2019
</metadata>
<g transform="translate(0.000000,1250.000000) scale(0.100000,-0.100000)"
fill="#000000" stroke="none">
<path d="M5855 11840 c-137 -21 -245 -49 -372 -96 -54 -19 -106 -38 -115 -41
-16 -5 -18 -19 -18 -102 l0 -96 -159 3 c-135 3 -165 1 -193 -14 -37 -19 -177
-132 -250 -203 l-48 -45 0 -1433 0 -1432 53 -52 c51 -50 201 -173 264 -217 30
-22 38 -22 352 -22 l321 0 0 -100 c0 -55 0 -103 0 -107 0 -5 -42 -10 -92 -11
l-93 -4 80 -24 c184 -57 370 -84 581 -84 208 0 363 21 569 78 l100 27 -170 5
-171 5 -1 87 c-2 142 -33 128 278 128 l269 0 0 -70 0 -70 63 31 c149 76 346
214 480 339 45 42 48 48 45 87 -3 43 -3 43 32 44 19 1 38 1 42 0 9 -1 118 129
118 141 0 4 -124 8 -275 8 l-275 0 0 110 0 110 348 0 347 -1 26 43 c67 114
157 365 193 538 16 78 36 228 36 267 l0 23 -400 0 -401 0 3 108 3 107 398 3
397 2 0 48 c0 26 -3 57 -6 70 l-6 22 -299 0 -299 0 0 110 0 110 280 0 c304 0
290 -3 271 56 -5 16 -20 63 -32 104 -97 328 -315 663 -592 912 -297 266 -646
432 -1052 498 -158 26 -468 26 -630 0z m-95 -590 l0 -110 -335 0 -335 0 0 110
0 110 335 0 335 0 0 -110z m770 0 l0 -110 -265 0 -265 0 0 110 0 110 265 0
265 0 0 -110z m770 5 l0 -104 -265 -3 -265 -3 0 101 c0 55 3 104 7 107 3 4
123 7 265 7 l258 0 0 -105z m-1000 -365 l0 -110 -605 0 -605 0 0 110 0 110
605 0 605 0 0 -110z m618 -3 l3 -107 -193 2 -193 3 -3 94 c-1 52 0 101 2 108
5 11 43 13 193 11 l188 -3 3 -108z m825 0 l2 -107 -297 0 -298 0 0 110 0 110
295 -2 296 -3 2 -108z m-2393 -360 l0 -107 -247 2 -248 3 -3 94 c-1 52 -1 99
1 105 3 8 84 11 251 11 l246 0 0 -108z m220 -362 c0 -77 -3 -105 -12 -105 -7
0 -133 -1 -281 -3 l-267 -2 0 108 0 107 280 0 280 0 0 -105z m798 -2 l-3 -108
-280 0 -280 0 -3 108 -3 107 286 0 286 0 -3 -107z m1002 -3 l0 -110 -385 0
-385 0 0 110 0 110 385 0 385 0 0 -110z m-1450 -360 l0 -110 -455 0 -455 0 0
110 0 110 455 0 455 0 0 -110z m780 0 l0 -110 -270 0 -270 0 0 110 0 110 270
0 270 0 0 -110z m490 0 l0 -110 -130 0 -130 0 0 103 c0 57 3 107 7 110 3 4 62
7 130 7 l123 0 0 -110z m-1550 -370 l0 -110 -315 0 -315 0 0 110 0 110 315 0
315 0 0 -110z m1440 5 l0 -105 -605 0 -605 0 0 105 0 105 605 0 605 0 0 -105z
m900 -5 l0 -110 -332 3 -333 2 -3 108 -3 107 336 0 335 0 0 -110z m-2632 -342
c5 -139 28 -126 -231 -128 -123 0 -231 2 -240 6 -14 5 -17 22 -17 108 l0 101
242 -2 243 -3 3 -82z m2 -379 l0 -109 -170 0 -170 0 0 110 0 111 170 -1 170
-2 0 -109z m735 79 c3 -18 5 -67 3 -108 l-3 -75 -252 -3 -253 -2 0 110 0 110
250 0 249 0 6 -32z m945 -78 l0 -110 -355 0 -355 0 0 103 c0 57 3 107 7 111 4
3 163 6 355 6 l348 -1 0 -109z m-418 -370 l-3 -110 -270 0 -269 0 0 113 0 112
272 -3 273 -3 -3 -109z m-774 3 l-3 -108 -410 0 -410 0 -3 108 -3 107 416 0
416 0 -3 -107z m1550 0 l3 -103 -271 0 -270 0 0 98 c0 54 3 102 7 105 4 4 124
6 267 5 l261 -3 3 -102z m-1128 -363 l0 -110 -165 0 -165 0 0 110 0 110 165 0
165 0 0 -110z"/>
<path d="M4563 11085 l-72 -90 -1 -107 0 -108 -65 0 -65 0 -30 -60 c-16 -33
-30 -64 -30 -70 0 -6 37 -10 95 -10 l96 0 -3 -112 -3 -113 -95 -3 c-138 -4
-140 -3 -141 66 l-1 57 -34 -105 c-64 -199 -94 -397 -94 -625 0 -226 27 -400
93 -610 31 -96 32 -98 35 -57 l3 42 120 0 119 0 0 -110 0 -110 -90 0 c-55 0
-90 -4 -90 -10 0 -6 14 -37 30 -70 l30 -60 60 0 60 0 0 -97 0 -98 73 -90 72
-89 3 682 c1 375 1 989 0 1365 l-3 682 -72 -90z m-73 -922 l0 -113 -120 0
-120 0 0 108 c0 60 2 111 4 113 2 2 56 4 120 4 l116 0 0 -112z m0 -365 l0
-113 -117 2 -118 2 -3 110 -3 111 121 0 120 0 0 -112z m0 -368 l0 -110 -120 0
-120 0 0 110 0 110 120 0 120 0 0 -110z"/>
<path d="M9622 9024 c-5 -11 -12 -38 -16 -62 -3 -24 -16 -63 -27 -87 l-21 -44
-58 30 c-87 44 -90 42 -90 -45 0 -128 -31 -167 -97 -121 -21 14 -43 25 -49 25
-13 0 -13 1 -60 -127 -41 -114 -85 -202 -112 -227 -20 -18 -22 -18 -52 4 -39
28 -39 28 -79 -95 -85 -255 -120 -481 -128 -812 -5 -236 9 -497 28 -508 10 -7
99 225 137 360 38 135 87 377 103 507 7 53 15 101 18 106 4 6 35 3 81 -9 126
-32 437 -87 587 -103 267 -30 718 -16 1003 29 194 31 176 32 184 -6 10 -46 68
-378 112 -634 44 -257 49 -273 58 -175 47 537 26 1011 -58 1256 -36 106 -61
148 -118 198 -29 25 -56 46 -60 46 -5 0 -8 -19 -8 -42 0 -40 -14 -79 -23 -68
-2 3 -18 32 -36 66 -68 129 -195 255 -350 347 -83 49 -281 123 -305 114 -7 -3
-16 -23 -20 -44 -3 -21 -13 -46 -20 -56 -14 -18 -18 -16 -81 32 -37 29 -83 60
-103 70 -63 32 -222 82 -277 88 -45 5 -54 3 -63 -13z"/>
<path d="M9234 7197 c-95 -17 -128 -45 -89 -77 12 -10 28 -10 75 -1 86 17 309
15 404 -4 44 -8 88 -13 98 -9 22 7 24 37 3 54 -45 38 -355 61 -491 37z"/>
<path d="M10410 7204 c-133 -17 -180 -42 -144 -78 18 -19 33 -19 94 -5 71 16
296 13 388 -6 61 -12 86 -13 102 -5 11 6 20 15 20 20 0 14 -30 40 -53 45 -12
3 -42 9 -67 15 -49 11 -284 21 -340 14z"/>
<path d="M9130 7068 c-131 -10 -145 -17 -144 -79 1 -29 9 -48 29 -69 26 -27
30 -42 50 -194 15 -108 28 -174 39 -192 41 -61 172 -88 405 -83 146 4 160 6
211 31 65 32 86 62 164 234 59 132 82 154 139 138 26 -8 36 -23 87 -134 65
-143 100 -203 132 -224 47 -31 139 -46 278 -46 224 1 325 25 371 90 12 17 25
77 41 193 21 162 24 170 50 189 23 16 28 27 28 62 0 72 -4 74 -195 87 -201 14
-459 7 -571 -16 -43 -9 -104 -29 -134 -43 -74 -36 -155 -36 -225 0 -27 14 -72
30 -100 37 -131 30 -408 38 -655 19z m460 -38 c199 -17 280 -58 280 -142 0
-84 -93 -304 -149 -350 -45 -38 -138 -52 -301 -45 -224 9 -272 36 -300 165
-18 85 -10 250 14 286 26 40 114 77 205 86 113 11 126 11 251 0z m1135 -12
c70 -15 122 -43 139 -76 35 -69 27 -282 -14 -363 -14 -26 -33 -45 -53 -54 -78
-33 -311 -45 -436 -24 -53 10 -72 18 -96 44 -58 61 -134 247 -138 335 -2 54
15 80 73 110 85 43 380 59 525 28z"/>
<path d="M9304 6788 c-18 -29 33 -77 104 -99 81 -24 202 27 202 86 0 21 -2 21
-70 12 -42 -5 -103 -5 -151 0 -44 5 -82 5 -85 1z"/>
<path d="M10383 6783 c-10 -26 32 -67 88 -87 46 -16 62 -17 108 -7 59 12 111
51 111 84 0 18 -6 19 -92 13 -51 -3 -119 -2 -151 2 -47 7 -60 6 -64 -5z"/>
<path d="M11122 6839 c-42 -293 -203 -542 -470 -728 l-32 -23 -57 57 c-65 67
-151 111 -244 126 -83 14 -238 3 -282 -20 -33 -17 -36 -17 -73 2 -31 16 -64
22 -154 25 -182 7 -276 -25 -379 -130 -28 -28 -56 -48 -63 -45 -32 12 -180
132 -228 184 -156 170 -229 327 -276 588 l-7 40 -9 -45 c-5 -25 -10 -153 -12
-285 -4 -222 -6 -244 -26 -290 -85 -192 -99 -328 -39 -387 26 -27 27 -30 18
-85 -5 -32 -12 -107 -15 -168 -9 -172 23 -281 107 -364 37 -36 127 -81 163
-81 9 0 17 -30 25 -98 20 -167 60 -261 128 -303 52 -32 192 -39 293 -14 39 10
72 16 73 14 1 -2 13 -26 26 -54 32 -69 72 -116 143 -170 63 -48 231 -135 260
-135 26 0 149 60 220 106 79 53 157 135 187 198 11 25 24 46 29 46 4 -1 34 -7
67 -15 33 -8 96 -15 141 -15 167 0 253 85 303 301 11 46 23 112 26 146 l7 63
41 11 c87 23 145 73 173 146 33 85 2 324 -55 431 -8 15 -4 24 19 46 66 62 66
213 -1 391 -17 45 -18 61 -10 92 12 42 13 398 2 478 l-6 50 -13 -86z"/>
<path d="M13255 5233 c-66 -58 -154 -136 -195 -174 -114 -102 -160 -139 -194
-153 -40 -18 -241 -106 -421 -186 -77 -34 -144 -65 -149 -70 -5 -5 2 -19 17
-32 61 -55 259 -241 354 -333 57 -54 108 -102 114 -105 5 -4 79 -75 163 -158
84 -84 158 -152 163 -152 5 0 35 66 66 148 141 371 130 347 160 350 30 4 41
-4 177 -127 47 -43 105 -95 130 -117 25 -21 51 -45 59 -53 27 -25 541 -485
604 -540 200 -175 217 -192 217 -229 0 -19 5 -51 11 -72 11 -35 9 -42 -36
-126 -26 -49 -54 -98 -60 -109 -11 -17 -81 -148 -288 -535 -22 -41 -68 -127
-102 -190 -34 -63 -83 -153 -108 -200 -147 -275 -162 -301 -213 -338 -131 -99
-167 -260 -89 -400 25 -45 33 -128 19 -198 l-5 -29 -196 2 c-108 2 -198 5
-200 7 -3 3 3 31 12 63 37 123 -2 567 -89 1033 -8 41 -22 118 -31 170 -9 52
-20 120 -26 150 -5 30 -16 98 -24 150 -8 52 -19 108 -24 125 -5 16 -12 59 -16
95 -4 36 -13 92 -20 125 -8 33 -18 92 -24 130 -5 39 -18 122 -29 185 -11 63
-22 129 -25 145 -3 17 -17 98 -31 180 -27 151 -56 332 -56 345 0 4 -28 10 -63
12 -36 3 -81 15 -107 28 -62 31 -144 103 -182 158 -18 26 -35 48 -39 50 -4 2
-6 9 -3 17 3 7 1 16 -5 20 -6 3 -11 40 -11 84 l0 77 -62 16 c-35 9 -151 41
-258 72 -107 30 -303 84 -435 120 -132 36 -315 86 -407 111 -92 25 -173 45
-180 45 -11 0 -81 -72 -133 -138 -25 -31 -197 -172 -260 -213 -149 -98 -323
-166 -496 -194 -121 -19 -350 -19 -465 0 -305 52 -576 208 -795 457 -40 46
-78 84 -84 86 -11 3 -287 -69 -592 -154 -70 -19 -184 -50 -253 -69 -227 -60
-284 -76 -360 -99 -99 -32 -262 -76 -277 -76 -29 0 -125 -55 -162 -93 -57 -57
-82 -114 -94 -215 -6 -48 -13 -89 -17 -92 -3 -3 -13 -59 -23 -125 -9 -66 -26
-169 -37 -230 -11 -60 -30 -166 -41 -235 -11 -69 -23 -138 -26 -155 -2 -16
-15 -88 -28 -160 -13 -71 -26 -155 -30 -185 -4 -30 -13 -86 -20 -125 -14 -70
-29 -154 -60 -335 -9 -52 -26 -140 -37 -195 -18 -91 -23 -116 -27 -152 -1 -8
-41 -10 -153 -6 -141 5 -469 -17 -513 -33 -9 -4 -15 -19 -15 -36 0 -21 -6 -31
-20 -35 -17 -5 -20 -14 -20 -59 l0 -54 471 0 471 0 -6 -27 c-3 -16 -10 -77
-16 -137 -6 -59 -13 -112 -15 -116 -6 -10 -31 -242 -46 -415 -5 -66 -15 -165
-21 -219 l-12 -99 35 -30 c19 -16 66 -44 104 -62 136 -64 144 -65 405 -65
l240 0 -39 36 c-44 39 -54 72 -85 289 -9 61 -30 211 -48 335 -18 124 -35 227
-38 230 -3 3 -6 23 -7 45 -1 22 -18 146 -37 275 -20 129 -42 282 -51 340 -9
58 -25 164 -36 235 -11 72 -22 148 -25 170 -4 44 -17 132 -41 270 -8 50 -16
101 -17 115 -2 14 -9 69 -16 123 -16 126 -9 204 23 260 14 24 33 49 41 56 13
11 530 13 2688 13 l2673 0 27 -33 c59 -70 69 -158 39 -339 -16 -92 -51 -331
-71 -475 -12 -87 -58 -400 -70 -473 -33 -200 -77 -499 -85 -571 -3 -30 -14
-105 -24 -165 -11 -61 -24 -149 -30 -196 -18 -127 -55 -364 -68 -434 -3 -15
-23 -46 -44 -67 l-39 -39 238 0 c260 0 280 3 416 71 33 16 63 29 68 29 4 0 8
-25 8 -56 l0 -55 1178 7 c647 4 1179 8 1181 10 2 2 -2 10 -9 19 -11 13 -97 15
-706 15 -675 0 -694 1 -704 19 -15 28 -13 284 2 299 9 9 178 12 700 12 679 0
687 0 698 20 8 15 8 21 -2 25 -7 3 -319 6 -693 8 l-680 2 -3 23 c-2 15 2 22
12 22 14 0 16 18 16 125 0 104 -2 125 -15 125 -8 0 -15 9 -15 20 0 20 7 20
641 20 l640 0 -3 23 -3 22 -574 3 c-445 2 -577 5 -583 15 -4 6 -8 62 -8 124 0
101 2 113 19 123 13 6 212 10 576 10 525 0 556 1 553 17 -3 17 -35 18 -486 21
-265 1 -482 5 -482 8 0 3 37 73 82 157 45 84 97 181 116 217 19 36 79 146 133
246 53 99 108 203 121 230 14 27 55 107 93 178 62 114 75 132 120 161 109 72
150 133 161 244 13 119 -56 240 -169 297 -27 13 -64 24 -82 24 -31 0 -66 29
-322 256 -158 141 -327 292 -374 334 -47 43 -105 95 -130 115 -24 21 -46 40
-49 44 -3 4 -84 78 -182 164 -167 150 -176 160 -181 200 -3 23 -8 53 -12 67
-4 17 -1 31 12 45 37 42 100 121 113 141 12 19 5 28 -96 125 -213 204 -251
239 -260 239 -5 0 -63 -48 -129 -107z m272 -653 c22 0 42 -8 57 -22 12 -13 40
-38 62 -57 21 -18 62 -55 89 -80 28 -26 109 -98 180 -161 72 -63 132 -117 135
-120 3 -3 109 -98 235 -210 127 -113 250 -223 275 -246 25 -23 60 -55 79 -71
l34 -29 -50 -47 c-27 -26 -58 -62 -69 -82 -10 -19 -22 -35 -26 -35 -4 0 -36
26 -70 58 -35 32 -146 132 -248 222 -102 91 -190 169 -196 175 -6 5 -44 39
-84 75 -40 36 -81 72 -89 80 -23 21 -184 166 -322 288 -99 87 -115 106 -112
127 3 13 -2 37 -10 53 -13 28 -13 32 11 62 21 27 30 31 55 26 16 -3 45 -6 64
-6z m1096 -1495 c23 -20 63 -43 89 -53 27 -9 48 -20 48 -25 0 -8 -95 -193
-130 -252 -17 -28 -84 -153 -211 -390 -29 -55 -84 -156 -121 -225 -38 -69 -87
-162 -111 -207 -23 -46 -48 -83 -55 -83 -25 0 -62 -48 -62 -80 0 -16 -2 -30
-4 -30 -2 0 -23 9 -47 20 -24 11 -60 20 -79 21 -90 3 -93 -11 51 254 72 132
157 292 191 355 33 63 64 120 68 125 4 6 32 57 62 115 55 104 194 365 240 447
13 24 25 43 26 43 2 0 22 -16 45 -35z"/>
<path d="M5523 2584 c-4 -11 -18 -15 -47 -14 -81 3 -75 10 -91 -98 -6 -38 -9
-41 -20 -26 -7 10 -19 15 -28 11 -11 -4 -17 -28 -22 -94 -3 -48 -10 -135 -15
-193 -5 -57 -8 -105 -7 -106 1 -1 11 -4 22 -6 19 -3 21 4 27 102 4 58 11 130
16 160 7 52 9 54 21 32 10 -18 10 -50 2 -148 -6 -69 -11 -153 -11 -188 0 -36
-5 -68 -12 -75 -11 -11 -10 -12 0 -7 10 6 12 -14 10 -96 l-3 -103 -118 -1
c-94 -1 -121 -4 -134 -17 -14 -14 -15 -41 -5 -264 7 -136 14 -333 18 -436 7
-212 11 -238 42 -252 12 -5 20 -15 18 -22 -3 -6 2 -14 10 -17 9 -3 157 -6 330
-6 l314 0 10 25 c6 17 17 25 33 25 27 0 25 -22 47 555 5 143 11 292 12 330 l3
70 -109 8 c-61 4 -112 10 -114 12 -4 4 8 113 24 213 2 15 8 55 12 89 4 34 11
65 15 69 3 4 35 2 69 -3 41 -7 65 -7 69 -1 4 6 12 50 19 99 7 49 17 89 22 89
4 0 6 -10 4 -22 -28 -134 -32 -168 -16 -152 11 11 38 174 42 259 2 43 -1 59
-10 57 -6 -1 -12 2 -12 6 0 10 -68 32 -99 32 -12 0 -21 6 -21 15 0 18 0 18
-37 0 -25 -12 -32 -25 -41 -68 -48 -223 -46 -219 -83 -210 -27 8 -23 23 6 23
19 0 25 5 25 20 0 12 -6 20 -12 19 -25 -3 -38 1 -38 12 0 6 9 9 20 6 13 -3 21
1 26 15 7 23 -11 39 -33 31 -7 -3 -13 0 -13 6 0 6 11 11 25 11 18 0 25 5 25
20 0 15 -7 20 -26 20 -16 0 -24 5 -21 13 2 6 14 11 26 10 17 -2 21 3 21 27 0
27 -3 30 -30 30 -16 0 -30 5 -30 11 0 6 7 9 15 5 23 -8 45 4 45 26 0 10 -4 17
-9 13 -5 -3 -13 0 -17 6 -5 8 -8 8 -14 0 -5 -9 -10 -8 -20 4 -11 13 -8 15 24
15 29 0 36 4 36 20 0 19 -7 20 -90 20 -73 0 -92 -3 -97 -16z"/>
<path d="M6173 1622 c-9 -5 -9 -27 -3 -82 33 -275 40 -338 40 -362 0 -27 1
-28 60 -28 33 0 60 4 60 9 0 30 -33 390 -38 424 l-8 42 -49 3 c-28 1 -55 -1
-62 -6z"/>
<path d="M6551 1508 c-78 -38 -121 -138 -92 -212 7 -18 9 -16 19 13 14 39 38
62 104 98 62 34 103 113 59 113 -11 0 -25 2 -33 5 -7 3 -33 -5 -57 -17z"/>
<path d="M6667 1493 c-4 -3 -7 -16 -7 -29 0 -28 -43 -80 -73 -90 -60 -18 -125
-97 -95 -115 43 -28 141 15 177 77 12 20 22 55 23 79 2 27 6 41 13 38 5 -4 1
4 -10 18 -11 13 -20 25 -21 27 0 1 -4 -1 -7 -5z"/>
<path d="M6290 752 c0 -11 4 -22 10 -24 5 -1 131 -2 280 0 229 2 270 5 270 17
0 13 -33 15 -219 15 -120 0 -246 3 -280 6 -57 6 -61 6 -61 -14z"/>
<path d="M4832 243 l3 -68 5150 -5 c3426 -3 5154 -2 5161 5 7 6 14 38 16 72
l4 63 -5168 0 -5169 0 3 -67z"/>

</g>
</svg>
