<?xml version="1.0" standalone="no"?>
<!DOCTYPE svg PUBLIC "-//W3C//DTD SVG 20010904//EN"
 "http://www.w3.org/TR/2001/REC-SVG-20010904/DTD/svg10.dtd">
<svg version="1.0" xmlns="http://www.w3.org/2000/svg"
 width="1300.000000pt" height="1300.000000pt" viewBox="0 0 1300.000000 1300.000000"
 preserveAspectRatio="xMidYMid meet">
<metadata>
Created by potrace 1.16, written by Peter Selinger 2001-2019
</metadata>
<g transform="translate(0.000000,1300.000000) scale(0.100000,-0.100000)"
fill="#000000" stroke="none">
<path d="M6322 10540 c-60 -16 -165 -60 -181 -76 -2 -2 4 -14 15 -26 l19 -23
-26 22 -25 23 -67 -55 c-167 -138 -257 -332 -257 -552 0 -69 -3 -102 -10 -98
-6 4 -53 -3 -105 -15 -73 -17 -95 -26 -100 -41 -8 -25 2 -56 21 -63 18 -7 174
30 188 45 18 17 24 9 45 -53 29 -84 90 -184 156 -251 241 -247 614 -287 896
-96 69 46 165 140 188 183 14 24 13 29 -7 49 l-22 21 -14 -20 c-71 -101 -154
-172 -261 -224 -102 -49 -168 -64 -280 -63 -109 1 -196 22 -290 71 -74 39
-191 141 -226 198 -11 19 -26 31 -31 28 -6 -4 -8 -3 -5 3 4 6 -4 33 -18 60
-46 96 -60 161 -59 278 1 136 30 236 102 346 116 178 324 289 540 289 200 0
409 -116 523 -289 73 -112 102 -209 103 -346 1 -117 -13 -182 -59 -276 l-23
-48 24 -22 23 -21 21 33 c73 119 100 346 61 499 -61 235 -232 419 -460 497
-105 36 -291 42 -399 13z"/>
<path d="M6662 10238 c-9 -9 -6 -18 14 -39 14 -14 36 -53 49 -85 23 -57 25
-59 68 -65 86 -13 141 -63 154 -143 15 -93 -72 -196 -167 -196 -28 0 -55 -21
-43 -33 11 -12 82 -8 116 6 144 61 183 239 75 347 -36 37 -84 60 -123 60 -16
0 -28 7 -31 18 -18 53 -31 79 -57 109 -32 36 -37 39 -55 21z"/>
<path d="M6025 9974 c-33 -79 -10 -188 52 -245 52 -49 85 -59 188 -59 l95 0 0
-102 c0 -97 -1 -100 -18 -85 -10 10 -24 17 -30 17 -25 0 -11 -37 28 -75 l40
-39 40 39 c22 21 40 45 40 51 0 22 -21 26 -41 8 -19 -17 -19 -15 -19 84 l0
102 80 0 c44 0 80 -2 80 -5 0 -3 -6 -14 -12 -25 -10 -15 -10 -22 0 -32 9 -9
16 -7 32 7 20 18 20 18 20 -97 0 -90 3 -117 14 -121 8 -3 17 -3 20 0 3 4 6 57
6 120 l0 113 25 -16 c23 -15 25 -15 32 1 4 13 -5 29 -35 57 l-41 38 -218 0
c-120 0 -225 5 -233 10 -10 6 -21 4 -35 -8 -16 -14 -17 -14 -7 -1 10 13 5 23
-27 57 -46 48 -61 109 -42 172 6 20 11 45 11 54 0 30 -30 17 -45 -20z"/>
<path d="M7567 9652 c-20 -22 -22 -46 -4 -60 17 -14 154 -62 176 -62 29 0 46
27 35 57 -7 20 -25 31 -94 54 -101 34 -93 33 -113 11z"/>
<path d="M5201 9595 c-80 -30 -107 -54 -92 -83 17 -32 44 -35 102 -12 122 47
139 62 119 101 -14 25 -49 24 -129 -6z"/>
<path d="M8032 9474 c-42 -29 -25 -55 70 -104 80 -41 88 -43 112 -30 30 16 33
40 9 62 -15 13 -156 88 -166 88 -1 0 -13 -7 -25 -16z"/>
<path d="M4760 9393 c-106 -59 -121 -81 -79 -119 15 -14 24 -16 37 -8 9 6 44
26 77 44 76 42 85 49 85 70 0 18 -30 50 -46 50 -5 0 -38 -17 -74 -37z"/>
<path d="M8456 9224 c-14 -37 -4 -52 72 -102 81 -54 100 -60 120 -40 29 29 13
56 -63 108 -76 51 -118 62 -129 34z"/>
<path d="M4329 9121 c-88 -66 -95 -76 -81 -106 13 -28 51 -34 74 -12 7 6 38
31 70 55 65 50 72 62 52 91 -22 31 -43 26 -115 -28z"/>
<path d="M8858 8949 c-31 -18 -20 -45 45 -108 66 -65 98 -81 122 -61 29 24 16
54 -52 118 -67 62 -83 70 -115 51z"/>
<path d="M3278 8850 c-242 -51 -441 -231 -522 -472 -61 -183 -27 -431 82 -593
48 -72 142 -167 203 -206 27 -17 49 -34 49 -38 -1 -3 -7 -17 -15 -31 -20 -35
-18 -64 5 -85 26 -24 45 -14 71 37 12 24 22 44 23 45 1 1 33 -7 71 -18 81 -23
249 -27 330 -9 74 17 173 58 235 99 202 132 334 392 317 626 -12 161 -75 314
-178 429 -29 32 -44 53 -33 46 18 -11 27 -5 87 53 37 35 67 70 67 76 0 21 -39
51 -57 44 -10 -3 -48 -35 -84 -70 l-65 -64 -74 45 c-84 52 -165 81 -265 96
-97 13 -146 12 -247 -10z m313 -69 c211 -55 396 -238 449 -445 57 -224 -4
-459 -160 -615 -198 -198 -484 -247 -737 -125 -111 54 -235 178 -286 287 -87
181 -89 372 -8 551 75 165 233 299 410 347 91 25 237 24 332 0z"/>
<path d="M3484 8533 c-6 -5 -42 -127 -79 -273 -37 -146 -77 -300 -88 -342 -16
-64 -17 -81 -7 -93 23 -28 54 -14 67 30 40 135 164 640 161 658 -3 23 -33 34
-54 20z"/>
<path d="M3116 8302 c-147 -81 -169 -100 -147 -126 16 -19 287 -166 307 -166
20 0 38 38 25 54 -6 7 -56 37 -111 67 -55 30 -99 59 -97 64 2 6 47 35 101 66
54 31 102 62 106 70 12 18 -7 49 -28 48 -9 0 -80 -35 -156 -77z"/>
<path d="M3563 8373 c-7 -2 -13 -15 -13 -28 0 -19 18 -34 105 -82 58 -32 105
-63 105 -69 0 -6 -39 -31 -87 -57 -122 -64 -127 -69 -119 -100 8 -35 25 -34
99 7 34 18 101 55 150 81 127 68 125 73 -63 174 -83 45 -153 81 -158 80 -4 0
-13 -3 -19 -6z"/>
<path d="M9462 8859 c-147 -22 -270 -87 -387 -204 -96 -96 -143 -182 -181
-330 -42 -162 -24 -317 54 -473 73 -147 181 -250 336 -322 101 -47 172 -62
297 -62 319 1 595 218 675 532 20 78 22 232 5 315 -17 78 -69 191 -126 270
-82 116 -241 225 -379 260 -77 19 -216 26 -294 14z m267 -75 c297 -73 498
-353 478 -663 -10 -161 -66 -281 -187 -401 -96 -97 -191 -151 -308 -176 -341
-72 -678 138 -757 472 -23 99 -17 262 13 351 70 200 251 369 449 417 80 20
232 20 312 0z"/>
<path d="M9607 8575 c-9 -9 -17 -20 -17 -25 0 -5 -24 -12 -54 -15 -47 -6 -58
-4 -86 16 l-32 24 -46 -26 c-54 -30 -76 -63 -61 -91 15 -28 -47 -111 -76 -104
-31 8 -63 -19 -75 -62 -17 -61 -13 -81 19 -99 24 -14 30 -25 35 -67 5 -45 3
-53 -22 -79 l-27 -28 29 -55 c30 -57 63 -77 95 -57 12 8 26 2 59 -21 35 -26
41 -35 38 -57 -7 -38 17 -65 68 -78 65 -16 75 -14 93 18 15 24 25 30 71 35 48
6 57 4 69 -14 18 -26 52 -25 100 2 50 29 55 37 49 77 -4 27 1 41 27 72 20 24
41 39 55 39 41 0 59 18 72 69 13 57 7 87 -20 96 -27 9 -39 104 -16 137 22 31
20 54 -10 106 -24 41 -28 44 -62 40 -31 -4 -44 1 -77 29 -27 23 -42 45 -45 66
-6 36 -37 56 -99 64 -27 4 -42 0 -54 -12z m76 -36 c35 -10 38 -12 32 -39 -5
-23 -2 -31 16 -40 12 -7 41 -30 65 -52 36 -33 46 -38 63 -29 30 16 35 14 55
-24 19 -34 19 -35 -2 -52 -19 -17 -21 -25 -15 -101 6 -82 6 -83 35 -89 20 -4
27 -10 24 -22 -3 -9 -8 -28 -12 -44 -6 -25 -10 -27 -38 -22 -26 5 -33 2 -48
-22 -9 -15 -30 -41 -47 -58 -33 -32 -38 -54 -18 -74 10 -10 6 -17 -18 -37 -38
-30 -49 -30 -69 1 -14 22 -22 24 -54 19 -21 -3 -55 -7 -76 -7 -38 -2 -48 -10
-60 -49 -4 -14 -10 -15 -46 -6 -42 11 -42 11 -36 49 4 23 2 39 -3 39 -6 0 -34
20 -64 44 -50 40 -55 43 -78 30 -33 -18 -32 -19 -54 22 l-19 36 28 23 c26 21
27 24 17 61 -6 21 -11 55 -11 76 0 31 -4 37 -31 47 -24 8 -29 15 -25 31 3 11
9 29 12 41 5 18 11 20 39 15 29 -6 36 -3 46 16 7 13 28 42 47 66 31 37 34 46
24 63 -19 29 -15 38 24 56 35 17 36 17 53 -5 17 -23 18 -23 99 -10 72 11 83
15 88 35 7 26 7 26 57 12z"/>
<path d="M9480 8412 c-62 -23 -132 -96 -153 -157 -27 -77 -20 -169 12 -163 13
3 16 17 17 68 0 97 40 163 124 205 33 17 86 21 175 13 43 -4 39 24 -5 39 -49
17 -117 15 -170 -5z"/>
<path d="M9775 8083 c-46 -109 -186 -166 -289 -117 -19 9 -41 14 -50 11 -53
-21 40 -67 134 -67 73 0 136 24 184 68 30 29 78 120 70 134 -12 19 -35 5 -49
-29z"/>
<path d="M4831 8533 c-8 -15 -1 -27 35 -64 l45 -46 -41 -41 c-42 -45 -50 -69
-24 -79 10 -4 31 9 60 38 l44 43 43 -42 c45 -45 71 -53 81 -25 5 11 -7 31 -39
63 l-47 47 30 24 c16 13 37 36 46 50 15 23 15 28 1 39 -12 10 -21 8 -50 -15
-20 -15 -41 -35 -48 -45 -10 -18 -15 -16 -59 26 -52 49 -62 52 -77 27z"/>
<path d="M6460 8531 c-160 -31 -298 -86 -425 -169 -59 -38 -64 -39 -170 -44
-88 -4 -128 -12 -199 -37 -336 -117 -556 -422 -556 -771 0 -131 27 -245 87
-365 45 -91 78 -133 108 -141 l25 -6 0 -178 0 -178 -34 -12 c-46 -15 -122 -83
-149 -134 -31 -58 -31 -184 0 -241 47 -87 126 -143 219 -152 l53 -6 31 -65
c39 -84 124 -211 190 -285 52 -57 53 -58 74 -40 21 18 21 18 3 -3 -18 -21 -17
-22 45 -74 35 -30 85 -67 112 -84 l49 -31 -394 -5 c-380 -5 -396 -6 -451 -28
-145 -59 -246 -163 -300 -310 -19 -51 -21 -80 -22 -282 l-1 -225 -46 -60
c-189 -247 -309 -531 -348 -819 -6 -44 -13 -81 -15 -84 -2 -2 -21 1 -43 7 -52
15 -138 14 -198 -3 -125 -33 -232 -122 -285 -238 -26 -57 -34 -90 -39 -157
l-6 -86 -167 -3 c-167 -2 -167 -3 -187 -29 -28 -35 -26 -67 4 -98 l26 -25
2890 0 2890 0 24 25 c30 30 32 64 4 99 l-20 26 -288 0 -288 0 -6 248 c-7 319
-36 493 -113 690 -30 77 -114 249 -142 289 -87 129 -88 130 -126 178 -23 29
-24 36 -28 260 -5 217 -6 234 -30 296 -59 152 -146 239 -301 302 -49 21 -73
22 -436 27 l-383 5 68 47 c38 26 89 65 114 86 41 36 43 41 30 58 -14 18 -14
18 4 4 17 -13 22 -11 63 35 63 72 153 209 188 286 30 66 30 67 77 72 93 12
172 72 216 166 21 45 24 64 20 120 -3 39 -14 83 -26 107 -25 48 -104 122 -141
131 -14 3 -29 11 -34 17 -8 12 -9 533 -1 562 3 11 31 36 62 56 32 21 72 51 91
68 l34 31 -6 102 c-16 285 -167 590 -388 786 -151 134 -341 230 -549 276 -116
26 -343 29 -460 6z m-184 -1183 c95 -89 271 -191 409 -237 127 -42 224 -56
380 -56 178 1 294 22 438 80 18 7 18 -9 14 -381 -3 -361 -5 -395 -25 -473 -42
-157 -110 -289 -216 -414 l-55 -64 32 -34 32 -34 -35 32 -35 31 -62 -51 c-115
-97 -248 -165 -411 -209 -112 -30 -364 -31 -474 0 -159 44 -330 134 -425 225
l-33 31 -27 -25 -28 -24 24 27 24 27 -57 62 c-113 125 -199 297 -238 473 -17
75 -21 141 -25 374 l-5 282 30 0 c60 0 206 31 280 60 149 57 259 136 372 268
35 39 65 72 67 72 2 0 24 -19 49 -42z m1609 -2018 c50 -19 99 -57 137 -107 70
-93 68 -66 68 -950 l0 -793 -1590 0 -1590 0 2 818 3 817 24 48 c31 64 101 133
159 160 l47 22 1310 5 c721 3 1330 2 1355 -2 25 -3 59 -11 75 -18z m461 -1110
c50 -104 90 -223 120 -354 23 -99 26 -139 31 -373 l5 -263 -126 0 -126 0 -2
548 c-2 301 -2 564 0 586 l3 38 30 -53 c16 -30 45 -88 65 -129z m-3594 -422
l-5 -568 -52 0 -53 0 -4 89 c-3 75 -9 99 -37 156 -19 37 -49 85 -68 106 -34
38 -35 40 -28 101 17 171 63 343 130 498 49 110 108 212 116 197 3 -7 4 -267
1 -579z m-423 -260 c92 -44 150 -133 159 -244 l5 -64 -247 -1 c-135 0 -261 -1
-278 -2 -32 -1 -33 1 -36 42 -4 57 21 137 58 188 76 103 220 138 339 81z
m1635 -209 c-2 -4 242 -8 544 -9 l549 0 29 22 29 22 -19 -22 -19 -22 506 0
507 0 0 -45 0 -45 -1590 0 -1590 0 0 45 0 45 503 1 c276 1 506 1 511 0 5 -1
16 1 24 4 12 4 11 10 -9 33 l-24 27 27 -24 c15 -13 25 -28 22 -32z"/>
<path d="M6080 6821 c-42 -6 -45 -8 -45 -36 l0 -30 90 -3 c50 -1 115 1 145 5
53 8 55 10 55 38 0 30 0 30 -65 33 l-64 3 24 -28 25 -28 -31 28 c-31 28 -45
30 -134 18z"/>
<path d="M6680 6815 c-19 -23 -3 -52 31 -57 17 -3 82 -6 145 -7 99 -2 115 0
121 15 12 31 -11 49 -73 56 -52 7 -61 5 -83 -15 l-26 -22 19 23 19 22 -70 0
c-50 0 -74 -4 -83 -15z"/>
<path d="M6125 6617 c-42 -42 -54 -82 -32 -104 13 -14 19 -14 31 -3 9 7 16 20
16 30 0 23 32 50 59 50 35 0 59 -17 66 -49 12 -54 55 -52 55 2 0 60 -55 107
-126 107 -28 0 -44 -8 -69 -33z"/>
<path d="M6737 6633 c-15 -10 -34 -37 -44 -61 -14 -38 -14 -45 -1 -58 18 -18
48 -8 48 15 0 30 30 61 59 61 36 0 60 -18 69 -55 6 -20 15 -30 28 -30 31 0 25
78 -9 112 -33 34 -109 42 -150 16z"/>
<path d="M6251 6256 c-18 -22 -4 -106 26 -154 106 -172 340 -172 446 0 36 57
43 143 15 162 -27 17 -52 -5 -59 -50 -7 -55 -33 -98 -76 -131 -32 -24 -45 -28
-104 -28 -53 0 -74 5 -96 21 -35 26 -72 79 -79 113 -12 61 -20 76 -42 77 -12
1 -26 -4 -31 -10z"/>
<path d="M6288 4697 c-71 -42 -117 -133 -103 -205 8 -44 137 -275 178 -318 17
-19 50 -39 83 -49 49 -15 58 -15 106 -1 34 9 65 27 85 48 44 46 170 271 178
317 13 80 -35 175 -108 210 -39 19 -60 21 -213 20 -155 0 -172 -2 -206 -22z
m362 -152 c18 -21 8 -47 -62 -165 -53 -89 -67 -105 -88 -105 -21 0 -35 16 -88
105 -106 177 -104 180 88 180 110 0 140 -3 150 -15z"/>
<path d="M9953 7293 c-18 -7 -16 -51 7 -125 26 -85 40 -103 73 -94 38 9 40 33
12 126 -29 97 -45 113 -92 93z"/>
<path d="M2956 7162 c-7 -12 -46 -168 -46 -186 0 -23 38 -40 64 -28 28 13 75
185 56 207 -13 16 -65 21 -74 7z"/>
<path d="M10069 6804 c-17 -20 3 -190 25 -212 19 -19 62 -8 69 18 8 30 -13
161 -29 188 -17 26 -46 29 -65 6z"/>
<path d="M2860 6675 c-18 -22 -34 -173 -21 -202 13 -28 41 -30 63 -4 15 17 31
110 31 178 0 40 -48 59 -73 28z"/>
<path d="M10122 6308 c-8 -8 -12 -46 -12 -103 0 -96 8 -115 45 -115 37 0 45
19 45 115 0 96 -8 115 -45 115 -12 0 -26 -5 -33 -12z"/>
<path d="M2822 6178 c-19 -19 -16 -193 4 -212 18 -19 28 -20 55 -6 17 9 19 22
19 101 0 50 -5 99 -10 110 -12 21 -50 25 -68 7z"/>
<path d="M4113 6172 c-55 -9 -72 -96 -27 -131 35 -28 69 -26 99 4 56 55 7 140
-72 127z"/>
<path d="M2925 5860 c-85 -9 -197 -47 -273 -92 -31 -18 -93 -69 -138 -114
-214 -214 -263 -525 -127 -804 39 -79 61 -109 132 -181 140 -140 292 -203 491
-202 127 0 216 20 321 74 236 122 378 355 379 620 0 112 -14 183 -55 279 -65
152 -185 279 -334 354 -106 54 -265 81 -396 66z m226 -74 c175 -37 348 -173
428 -336 93 -191 94 -376 0 -570 -75 -158 -239 -291 -414 -335 -75 -19 -221
-19 -302 0 -203 48 -385 213 -453 411 -83 240 -12 515 176 682 67 60 214 136
289 150 76 15 202 13 276 -2z"/>
<path d="M2856 5547 c-15 -11 -35 -69 -36 -105 0 -31 26 -2 36 39 14 56 33 56
50 0 25 -86 97 -126 173 -95 43 17 81 65 81 103 0 11 5 21 11 21 15 0 3 -122
-22 -222 -10 -42 -19 -83 -19 -92 0 -27 20 -18 31 14 l11 30 99 0 99 0 0 -210
0 -210 -300 0 -300 0 0 31 c0 26 3 30 18 24 108 -46 215 -12 272 86 27 45 70
150 70 170 0 29 -25 -5 -56 -75 -45 -104 -74 -141 -129 -161 -60 -23 -116 -15
-173 25 -24 17 -45 30 -47 28 -1 -2 1 -39 4 -83 l6 -80 335 0 335 0 0 295 0
295 -102 3 -102 3 -3 77 c-3 67 -6 77 -22 80 -23 5 -46 -23 -46 -54 0 -38 -40
-75 -87 -81 -39 -5 -46 -2 -78 30 -25 25 -35 44 -35 65 0 21 -8 36 -22 46 -27
19 -30 19 -52 3z"/>
<path d="M2854 5379 c-33 -37 -72 -51 -135 -48 -32 1 -61 0 -64 -3 -16 -16 76
-283 117 -340 40 -57 118 -74 177 -40 21 12 42 39 65 87 42 86 100 269 93 289
-4 10 -16 13 -46 9 -59 -8 -107 4 -145 37 -19 17 -36 30 -38 30 -3 0 -13 -9
-24 -21z"/>
<path d="M9905 5860 c-301 -36 -551 -269 -605 -564 -18 -97 -8 -263 20 -346
41 -119 80 -181 175 -275 147 -148 292 -209 495 -209 201 1 347 61 491 204 72
71 93 100 132 180 100 205 102 420 6 618 -132 270 -418 428 -714 392z m268
-84 c191 -61 354 -218 417 -401 99 -287 -17 -603 -278 -758 -144 -85 -320
-110 -486 -67 -113 29 -189 73 -282 165 -64 64 -90 97 -123 165 -94 192 -94
379 0 569 80 162 250 297 423 337 76 17 261 12 329 -10z"/>
<path d="M9622 5502 c-9 -7 -12 -86 -10 -363 l3 -354 404 -3 c317 -2 406 1
413 10 4 7 8 167 8 354 0 277 -3 344 -14 353 -9 8 -92 11 -282 9 -261 -3 -269
-4 -269 -23 0 -19 8 -20 258 -23 l257 -2 0 -35 0 -35 -370 0 -370 0 0 35 c0
34 1 35 39 35 48 0 71 8 71 25 0 7 -7 16 -16 19 -23 9 -107 7 -122 -2z m768
-417 l0 -265 -370 0 -370 0 0 265 0 265 370 0 370 0 0 -265z"/>
<path d="M9646 4362 c-13 -21 -37 -61 -52 -89 -28 -50 -29 -51 -10 -72 30 -33
53 -26 86 25 16 26 27 51 23 57 -3 6 -2 7 4 4 6 -4 18 12 29 34 21 48 12 72
-29 77 -21 3 -31 -4 -51 -36z"/>
<path d="M3346 4274 c-9 -8 -16 -18 -16 -22 0 -12 81 -140 100 -157 13 -12 28
-15 44 -11 43 11 41 38 -10 118 -26 40 -52 76 -58 80 -18 12 -44 9 -60 -8z"/>
<path d="M9351 3920 c-68 -81 -74 -95 -59 -120 15 -24 50 -26 72 -4 34 33 106
133 106 146 0 21 -21 38 -47 38 -15 0 -38 -19 -72 -60z"/>
<path d="M3637 3872 c-10 -10 -17 -23 -17 -29 0 -19 111 -152 132 -159 24 -7
59 22 55 46 -2 10 -25 44 -52 77 -76 90 -89 98 -118 65z"/>
<path d="M9013 3542 c-40 -37 -73 -73 -73 -80 0 -15 36 -52 50 -52 6 0 43 31
82 69 69 65 72 71 63 98 -17 47 -43 40 -122 -35z"/>
<path d="M2771 3194 c-28 -35 -26 -69 4 -99 24 -25 26 -25 208 -25 171 0 186
1 211 21 34 27 36 77 3 107 -22 21 -32 22 -214 22 l-192 0 -20 -26z"/>
<path d="M9692 3197 c-29 -31 -28 -72 3 -102 l24 -25 241 0 241 0 24 25 c30
30 32 64 4 99 l-20 26 -248 0 c-246 0 -248 0 -269 -23z"/>
</g>
</svg>
